<svg id="圖層_1" data-name="圖層 1" xmlns="http://www.w3.org/2000/svg" viewBox="0 0 416.7 110.76"><defs><style>.cls-1{fill:#fff;}</style></defs><path class="cls-1" d="M126.35,85.62a1.27,1.27,0,0,0-.13-.19c-12.66-16.66-17-32.11-17.9-36a1,1,0,0,0,.56-.81,10.28,10.28,0,0,0-.42-4.24c2.08-5.89.74-13-3.74-19.49-6-8.72-19.08-18-38.23-18.75l.89-2.35A2.77,2.77,0,0,0,65.76.18a2.78,2.78,0,0,0-3.57,1.61L61,5a2.66,2.66,0,0,0-.16,1.15C43.28,7.2,30.48,16.7,24.17,25.63c-4.61,6.52-6.26,13.26-4.61,18.6a7.28,7.28,0,0,0-.39,4.46,1.09,1.09,0,0,0,.32.55c-.86,3.67-5.11,19.31-17.93,36.19a.8.8,0,0,0-.13.19,13,13,0,0,0-1.43,6A13.12,13.12,0,0,0,17.32,104a10.57,10.57,0,0,0,9,5.07,10.37,10.37,0,0,0,5.42-1.51,8.18,8.18,0,0,0,13.59-1A45.27,45.27,0,0,0,64,110.76a43.87,43.87,0,0,0,14.47-2.43l.12,0c1.32-.46,2.62-1,3.9-1.59a8.18,8.18,0,0,0,13.53.89,10.4,10.4,0,0,0,5.42,1.51,10.59,10.59,0,0,0,9-5.07,13.13,13.13,0,0,0,15.89-18.41Zm-105.21-38a5.56,5.56,0,0,1,.1-2A144.33,144.33,0,0,0,64,51.87a144.26,144.26,0,0,0,42.65-6.17,9.08,9.08,0,0,1,.16,1.9,1.12,1.12,0,0,0-.41.2A144.85,144.85,0,0,1,64,53.87,144.6,144.6,0,0,1,21.14,47.66ZM63,5.75l1.21-3.21a.74.74,0,0,1,.35-.37.69.69,0,0,1,.51,0A.68.68,0,0,1,65.4,3l-1.15,3H64l-1.1,0A.73.73,0,0,1,63,5.75ZM25.89,26.85C32.28,17.81,45.65,8.16,64,8.16c19.67,0,33,9.24,39,17.89,4.06,5.91,5.34,12.26,3.53,17.49l-1,.3-1.24.38-1.23.35-1.24.35-1.28.34-1.23.32L98,45.9l-1.23.29-1.36.29-1.22.27-1.4.28-1.22.24-1.43.25-1.22.22L87.47,48l-1.22.19-1.49.2-1.21.17L82,48.71l-1.21.14L79.26,49l-1.21.12-1.58.13-1.19.1-1.63.1-1.17.07-1.7.08-1.11,0-1.88.05-.94,0-2.83,0-2.84,0-.93,0-1.88-.05-1.16,0-1.65-.08-1.22-.07-1.58-.1-1.23-.1L50,49.13,48.76,49l-1.53-.15L46,48.71l-1.49-.18-1.25-.17-1.46-.2L40.55,48l-1.44-.22-1.24-.22-1.41-.25L35.22,47l-1.38-.28c-.42-.08-.83-.18-1.24-.27l-1.35-.29L30,45.9l-1.33-.32-1.2-.32-1.31-.34L25,44.58l-1.28-.36-1.18-.36-1-.31C20.12,38.84,21.69,32.8,25.89,26.85Zm22.58,78.8A37.4,37.4,0,0,1,45,104.12C37.3,98.06,33.65,91.84,31.87,85.25,42.3,86.32,48.48,95.9,48.48,105,48.48,105.24,48.47,105.45,48.47,105.65Zm2.07.76c0-.46.05-.92.05-1.38,0-10.3-7.17-21.14-19.23-21.94-1.06-5.08-1.17-10.38-1.29-16v-.2C40.28,69.8,51.73,71.17,66,71.17c11.32,0,21.83-2,31.64-4.21v.31c-.11,5.62-.22,10.92-1.28,16-12.06.8-19.24,11.63-19.24,21.94,0,.45,0,.9.05,1.35A41.87,41.87,0,0,1,64,108.65,43.49,43.49,0,0,1,50.54,106.41Zm32.29-2.24a1.22,1.22,0,0,0-.26.06,1.1,1.1,0,0,0-.42.31c-1,.46-2,.89-3,1.27,0-.2,0-.4,0-.6,0-9.13,6.18-18.71,16.61-19.78C94,92,90.41,98.15,82.83,104.17Zm31.81-1.56a11,11,0,0,1-3.9-.72,1.05,1.05,0,0,0-.27-.2,1.07,1.07,0,0,0-1.41.5,8.45,8.45,0,0,1-7.6,4.8,8.37,8.37,0,0,1-5.07-1.7l0,0,0,0,0,0-.1,0-.1,0-.1,0h-.3l-.11,0-.08,0-.12,0-.07,0-.1.06-.07,0-.09.08-.06.07,0,0,0,.06,0,0a6.09,6.09,0,0,1-5.26,3,6,6,0,0,1-5.23-3C99.15,93.81,99.41,81.52,99.7,67.32l0-1.64a1.07,1.07,0,0,0-1-1.08h0a.82.82,0,0,0-.27,0c-2.78.62-5.61,1.23-8.49,1.79l-.63-7.19a.69.69,0,0,0-.76-.64.71.71,0,0,0-.64.76l.64,7.34c-4,.75-8.06,1.4-12.26,1.82l-.41-7.38a.71.71,0,0,0-1.41.08l.42,7.44c-2.91.26-5.87.41-8.89.41H64.53V61.67a.7.7,0,1,0-1.4,0V69c-3.61-.05-7-.19-10.28-.43l.41-7.4a.71.71,0,0,0-1.41-.08l-.41,7.36a118.07,118.07,0,0,1-12.25-1.62l.63-7.52a.71.71,0,0,0-.64-.76.69.69,0,0,0-.76.64L37.8,66.6c-2.95-.6-5.78-1.31-8.51-2.13h0l-.12,0h-.31l-.12,0-.07,0-.12.05-.07,0-.1.06-.07.06-.07.08a.27.27,0,0,0-.07.08.22.22,0,0,0-.05.08L28,65l0,.1s0,0,0,0a.13.13,0,0,1,0,.06.36.36,0,0,0,0,.11.34.34,0,0,0,0,.1v.06l0,1.63c.29,14.26.55,26.58,15.5,38.46a6,6,0,0,1-5.27,3.06,6.11,6.11,0,0,1-5.26-3l0,0a.21.21,0,0,0,0-.06l0,0-.06-.07-.09-.08-.07,0a.41.41,0,0,0-.11-.07l-.06,0-.12,0h-.08l-.12,0h-.29l-.11,0-.09,0-.1,0,0,0,0,0-.06,0a8.34,8.34,0,0,1-5.07,1.7,8.45,8.45,0,0,1-7.59-4.8,1.08,1.08,0,0,0-1.41-.5,1,1,0,0,0-.28.2A11,11,0,0,1,3.28,86.65C16.19,69.63,20.49,54.23,21.5,50A147.23,147.23,0,0,0,64,56,147.1,147.1,0,0,0,106.3,50c1,4.36,5.35,19.69,18.2,36.61a11,11,0,0,1-9.86,16Z"/><path class="cls-1" d="M79.39,79.09a2.14,2.14,0,1,0-2.1,2.52A2.34,2.34,0,0,0,79.39,79.09Z"/><path class="cls-1" d="M50.41,76.56a2.57,2.57,0,1,0,2.1,2.53A2.34,2.34,0,0,0,50.41,76.56Z"/><path class="cls-1" d="M70.57,95.22a1.06,1.06,0,0,0-1.16.94c-.32,3-2.39,4.78-5.53,4.8s-5.21-1.81-5.54-4.8a1.06,1.06,0,1,0-2.1.23c.44,4.08,3.33,6.62,7.54,6.68H64c4.21-.06,7.1-2.6,7.54-6.68A1.07,1.07,0,0,0,70.57,95.22Z"/><path class="cls-1" d="M61.69,89.94,66,90h0a.7.7,0,0,0,.6-1l-2.23-3.85a.71.71,0,0,0-.61-.35h0a.71.71,0,0,0-.61.36l-2.1,3.8a.7.7,0,0,0,.61,1Zm2.12-3.07,1,1.7-1.92,0Z"/><path class="cls-1" d="M163.32,46.28a1.65,1.65,0,0,1-1.24-.52,1.68,1.68,0,0,1-.51-1.24V32.2a1.05,1.05,0,0,0-.1-.44L151.39,11.3a.9.9,0,0,1-.15-.48,1,1,0,0,1,.19-.54,1,1,0,0,1,.93-.54h.93a2.54,2.54,0,0,1,1.43.44,2.78,2.78,0,0,1,1,1.17l4.14,9c.29.59.68,1.41,1.15,2.46s.9,2,1.31,2.9.81,1.72,1.2,2.53a.16.16,0,0,0,.14.05.18.18,0,0,0,.15-.05q2.87-6.13,3.65-7.89l4.19-9a2.76,2.76,0,0,1,1-1.17,2.68,2.68,0,0,1,1.46-.44h.78a1.06,1.06,0,0,1,.93.54,1.14,1.14,0,0,1,.14.54,1.36,1.36,0,0,1-.09.48L165.76,31.76a.92.92,0,0,0-.1.44V44.52a1.68,1.68,0,0,1-.51,1.24,1.61,1.61,0,0,1-1.2.52Z"/><path class="cls-1" d="M199.1,46.11a16.43,16.43,0,0,1-10.13,0,10.8,10.8,0,0,1-6.87-7.33,23.66,23.66,0,0,1-1-7.31v-20a1.76,1.76,0,0,1,1.75-1.76h.68a1.58,1.58,0,0,1,1.22.52,1.7,1.7,0,0,1,.49,1.24v20q0,11.79,8.82,11.78a8.25,8.25,0,0,0,6.52-2.75q2.44-2.74,2.44-9v-20a1.68,1.68,0,0,1,.51-1.24,1.61,1.61,0,0,1,1.19-.52h.49a1.65,1.65,0,0,1,1.24.52A1.68,1.68,0,0,1,207,11.5v20a23.66,23.66,0,0,1-1,7.31,11.33,11.33,0,0,1-2.8,4.79A11.21,11.21,0,0,1,199.1,46.11Z"/><path class="cls-1" d="M240.82,44.77a1,1,0,0,1,.14.51,1.25,1.25,0,0,1-.1.51,1,1,0,0,1-.87.49h-1.17a2.86,2.86,0,0,1-2.63-1.51l-8.13-14.08a.36.36,0,0,0-.35-.2h-6.38a.22.22,0,0,0-.24.25V44.52a1.7,1.7,0,0,1-.49,1.24,1.58,1.58,0,0,1-1.22.52h-.68A1.76,1.76,0,0,1,217,44.52v-33a1.76,1.76,0,0,1,1.75-1.76h9.45q12.61,0,12.62,10.14a9.91,9.91,0,0,1-2.19,6.69,11.19,11.19,0,0,1-6.09,3.49c-.13,0-.17.11-.1.24ZM221.33,13.11a.21.21,0,0,0-.24.24V26.89a.21.21,0,0,0,.24.24h6.19q9.1,0,9.11-7.25c0-2.41-.77-4.14-2.29-5.19s-3.8-1.58-6.82-1.58Z"/><path class="cls-1" d="M266.07,46.11a16.43,16.43,0,0,1-10.13,0,11.25,11.25,0,0,1-4.07-2.54,11.44,11.44,0,0,1-2.8-4.79,24,24,0,0,1-1-7.31v-20a1.76,1.76,0,0,1,1.76-1.76h.68a1.6,1.6,0,0,1,1.22.52,1.74,1.74,0,0,1,.48,1.24v20q0,11.79,8.82,11.78a8.27,8.27,0,0,0,6.53-2.75q2.43-2.74,2.43-9v-20a1.68,1.68,0,0,1,.51-1.24,1.63,1.63,0,0,1,1.2-.52h.48a1.76,1.76,0,0,1,1.76,1.76v20a24,24,0,0,1-1,7.31,11.44,11.44,0,0,1-2.8,4.79A11.25,11.25,0,0,1,266.07,46.11Z"/><path class="cls-1" d="M157.43,106.13a1.74,1.74,0,0,1-1.76-1.75v-33a1.68,1.68,0,0,1,.51-1.24,1.71,1.71,0,0,1,1.25-.51h8.37q6.52,0,10.06,2.48c2.36,1.66,3.53,4.37,3.53,8.14s-1.19,6.44-3.58,8.33-5.66,2.82-9.81,2.82h-5.94c-.17,0-.25.07-.25.2v12.81a1.75,1.75,0,0,1-.48,1.24,1.62,1.62,0,0,1-1.22.51Zm2.38-18.36c0,.13.08.19.25.19h5.35q5.07,0,7.48-1.85c1.61-1.23,2.41-3.2,2.41-5.89s-.81-4.54-2.43-5.63S168.69,73,165.22,73h-5.16c-.17,0-.25.08-.25.24Z"/><path class="cls-1" d="M200.19,106.76A13.78,13.78,0,0,1,189,101.57q-4.29-5.17-4.29-13.85T189,74.05a14.79,14.79,0,0,1,22.31,0q4.28,5.07,4.28,13.69t-4.28,13.85A13.8,13.8,0,0,1,200.19,106.76Zm0-3.6a9.6,9.6,0,0,0,8.14-4.22c2-2.8,3.07-6.55,3.07-11.22s-1-8.32-3.05-11a10.2,10.2,0,0,0-16.29,0C190,79.4,189,83.07,189,87.72s1,8.42,3.07,11.22A9.57,9.57,0,0,0,200.19,103.16Z"/><path class="cls-1" d="M247.49,104.62a1,1,0,0,1,.15.51,1.45,1.45,0,0,1-.1.51,1,1,0,0,1-.88.49h-1.17a2.85,2.85,0,0,1-2.63-1.51l-8.13-14.08a.35.35,0,0,0-.34-.19H228c-.17,0-.25.08-.25.24v13.79a1.72,1.72,0,0,1-.49,1.24,1.6,1.6,0,0,1-1.21.51h-.68a1.74,1.74,0,0,1-1.76-1.75v-33a1.68,1.68,0,0,1,.51-1.24,1.71,1.71,0,0,1,1.25-.51h9.44q12.62,0,12.62,10.13a10,10,0,0,1-2.19,6.7,11.17,11.17,0,0,1-6.09,3.48c-.13,0-.16.11-.1.24ZM228,73c-.17,0-.25.08-.25.24V86.74A.22.22,0,0,0,228,87h6.18q9.1,0,9.11-7.26,0-3.6-2.29-5.19T234.19,73Z"/><path class="cls-1" d="M263.32,106.13a1.74,1.74,0,0,1-1.75-1.75v-31c0-.16-.07-.25-.2-.25h-9.2a1.64,1.64,0,0,1-1.2-.51,1.62,1.62,0,0,1-.51-1.19v-.05a1.68,1.68,0,0,1,.51-1.24,1.64,1.64,0,0,1,1.2-.51h23a1.71,1.71,0,0,1,1.25.51,1.68,1.68,0,0,1,.51,1.24v.05a1.62,1.62,0,0,1-.51,1.19,1.71,1.71,0,0,1-1.25.51H266a.22.22,0,0,0-.24.25v31a1.71,1.71,0,0,1-.52,1.24,1.64,1.64,0,0,1-1.19.51Z"/><path class="cls-1" d="M285.29,106.13a1.76,1.76,0,0,1-1.76-1.75v-33a1.65,1.65,0,0,1,.52-1.24,1.68,1.68,0,0,1,1.24-.51h17.29a1.62,1.62,0,0,1,1.22.51,1.74,1.74,0,0,1,.48,1.24v.05a1.67,1.67,0,0,1-.48,1.19,1.62,1.62,0,0,1-1.22.51H287.92a.23.23,0,0,0-.25.25V85.77c0,.13.09.19.25.19h12.13a1.61,1.61,0,0,1,1.19.52,1.76,1.76,0,0,1,0,2.48,1.64,1.64,0,0,1-1.19.51H287.92c-.16,0-.25.07-.25.2v14.71a1.75,1.75,0,0,1-.48,1.24,1.62,1.62,0,0,1-1.22.51Z"/><path class="cls-1" d="M323.57,106.76a13.78,13.78,0,0,1-11.15-5.19q-4.29-5.17-4.29-13.85t4.29-13.67a14.79,14.79,0,0,1,22.31,0Q339,79.1,339,87.72t-4.28,13.85A13.8,13.8,0,0,1,323.57,106.76Zm0-3.6a9.6,9.6,0,0,0,8.14-4.22c2-2.8,3.07-6.55,3.07-11.22s-1-8.32-3-11a10.2,10.2,0,0,0-16.29,0c-2.05,2.72-3.07,6.39-3.07,11s1,8.42,3.07,11.22A9.57,9.57,0,0,0,323.57,103.16Z"/><path class="cls-1" d="M348.76,106.13a1.74,1.74,0,0,1-1.76-1.75v-33a1.68,1.68,0,0,1,.51-1.24,1.71,1.71,0,0,1,1.25-.51h.68a1.6,1.6,0,0,1,1.21.51,1.7,1.7,0,0,1,.49,1.24v31.08c0,.13.08.19.25.19h14.17a1.64,1.64,0,0,1,1.19.51,1.75,1.75,0,0,1,0,2.49,1.64,1.64,0,0,1-1.19.51Z"/><path class="cls-1" d="M375.45,106.13a1.76,1.76,0,0,1-1.76-1.75v-33a1.65,1.65,0,0,1,.52-1.24,1.68,1.68,0,0,1,1.24-.51h.68a1.62,1.62,0,0,1,1.22.51,1.74,1.74,0,0,1,.48,1.24v33a1.75,1.75,0,0,1-.48,1.24,1.62,1.62,0,0,1-1.22.51Z"/><path class="cls-1" d="M401.26,106.76a13.78,13.78,0,0,1-11.15-5.19q-4.29-5.17-4.29-13.85t4.29-13.67a14.79,14.79,0,0,1,22.31,0q4.27,5.07,4.28,13.69t-4.28,13.85A13.8,13.8,0,0,1,401.26,106.76Zm0-3.6a9.6,9.6,0,0,0,8.14-4.22c2-2.8,3.07-6.55,3.07-11.22s-1-8.32-3.05-11a10.2,10.2,0,0,0-16.29,0c-2.05,2.72-3.07,6.39-3.07,11s1,8.42,3.07,11.22A9.58,9.58,0,0,0,401.26,103.16Z"/></svg>